# xmcd
#
# Track frame offsets:
#	150
#	16916
#	33786
#	48246
#	63970
#	79526
#	94184
#	111035
#	127649
#	142198
#	155312
#	171994
#
# Disc length: 2480 seconds
#
# Revision: 1
# Processed by: cddbd v1.5.2PL0 Copyright (c) Steve Scherf et al.
# Submitted via: audiograbber 1.83.01
#
DISCID=8a09ae0c
DTITLE=Arron Tippin - He Believed
DYEAR=2008
DGENRE=Country
TTITLE0=He Believed
TTITLE1=I Got it Honest
TTITLE2=Country Boy's Toolbox
TTITLE3=My Blue Angel
TTITLE4=Working Man's PHD
TTITLE5=Bad Latitude
TTITLE6=Ready To Rock (In A Country Kinda Way)
TTITLE7=Whole Lotta Love On The Line
TTITLE8=I Wouldn't Have It Any Other Way
TTITLE9=Honky-Tonk Superman
TTITLE10=Could Not Stop Myself
TTITLE11=Trim Yourself To Fit The World
EXTD=
EXTT0=
EXTT1=
EXTT2=
EXTT3=
EXTT4=
EXTT5=
EXTT6=
EXTT7=
EXTT8=
EXTT9=
EXTT10=
EXTT11=
PLAYORDER=
